<svg xmlns="http://www.w3.org/2000/svg" viewBox="0 0 44 50"><defs/><g fill="none" fill-rule="evenodd"><path fill="#3D54FF" d="M38.02424554 10.79716437l-1.64076738-3.91040535c-.88680344-2.56402076-3.59516648-3.94328445-6.00802245-3.06062577L4.75758778 13.20128931c-2.36503752.86467295-3.55341753 3.58097159-2.6625329 6.08739637l1.6397865 3.68930269 34.28940416-12.180824z"/><path stroke="#0F1031" stroke-linecap="round" stroke-linejoin="round" stroke-width="2" d="M31.01796423 41.64350678c8.93991248-3.26975394 13.59003508-13.0188125 10.38703098-21.77441322L37.04379835 7.2112373c-.83740092-2.43105261-3.54823687-3.68574988-6.01347317-2.78422303l-26.1742266 9.5749505c-2.41637945.88315753-3.68479673 3.50917023-2.84189236 5.8850432l9.76368694 27.5189266c.21905535.61740694.89714205.94033476 1.514549.7212794a1.18616107 1.18616107 0 00.01085341-.00391031c3.57193419-1.3065674 7.1438684-2.6131347 10.71580257-3.9197021"/><path stroke="#0F1031" stroke-linecap="round" stroke-linejoin="round" stroke-width="2" d="M24.42765875 44.31571774c6.07519815-3.46937527 7.60037206-13.90552298 8.59584308-13.8486571 5.86183076.33625975 9.44701443-1.99580542 9.34008303-5.0948935"/><path fill="#334AFF" d="M30.18927074 20.9768379c.39518617 1.08046275 1.59154804 1.63550994 2.6720127 1.24032872 1.08046277-.39518607 1.63628347-1.59118724 1.24089594-2.67221904-.3951862-1.08046284-1.59118728-1.63628357-2.67221917-1.240896-1.0802563.39575336-1.63587065 1.59232177-1.24068947 2.67278633M21.85573096 24.30960407c.39518617 1.08046275 1.59175448 1.63607713 2.67221913 1.24089591 1.08046275-.39518616 1.63628357-1.59118728 1.24089591-2.67221913-.39518607-1.08046278-1.59118724-1.63628348-2.67221903-1.24089594-1.08046285.3951862-1.63607713 1.59175447-1.240896 2.67221916M12.68906433 27.6429374c.3951861 1.08046277 1.59175446 1.63607703 2.67221907 1.24089594 1.0802563-.39575337 1.63607713-1.59175448 1.24068947-2.67278633-.39554683-1.07968914-1.59154804-1.63550993-2.6725798-1.2401223-1.08046281.39518608-1.63550994 1.59154803-1.24032874 2.6720127M24.35593742 31.81017125c.39518833 1.08046196 1.59167696 1.635463 2.6722977 1.24022498 1.08061886-.39524289 1.63599875-1.59108362 1.24061093-2.6721153-.39518639-1.08046278-1.59131423-1.63623737-2.67250229-1.24079296-1.08041239.39581017-1.63615312 1.59242458-1.24040634 2.67268328M15.18916736 35.14322052c.39524318 1.08061876 1.59198434 1.63631336 2.67239917 1.24050975 1.08061806-.39524514 1.63651913-1.59141902 1.24050906-2.6724011-.39524504-1.08061807-1.59121254-1.63595182-2.6724004-1.24050716-1.0806188.39524317-1.63574606 1.59177785-1.24050783 2.67239851"/><path stroke="#0F1031" stroke-linecap="round" stroke-linejoin="round" stroke-width="2" d="M7.52971295 8.40342847l2.56515108 7.04769466M25.8630463 1.7367618l2.56515107 7.04769465"/></g></svg>